<svg width="35" height="28" viewBox="0 0 35 28" fill="none" xmlns="http://www.w3.org/2000/svg">
<g clip-path="url(#clip0)">
<path d="M29.86 18.36C29.88 18.36 29.9 18.35 29.92 18.35C29.95 18.35 29.97 18.34 29.99 18.33C30.1 18.31 30.21 18.28 30.3 18.23C30.38 18.19 30.44 18.14 30.51 18.09C30.52 18.08 30.53 18.07 30.55 18.06C30.72 17.92 30.86 17.75 30.93 17.52L34.35 6.06C34.48 5.63 34.33 5.19 34.03 4.9C34.01 4.89 34 4.87 33.98 4.85C33.97 4.84 33.95 4.83 33.94 4.82C33.84 4.73 33.71 4.67 33.58 4.63L33.57 4.62C33.56 4.62 33.55 4.62 33.54 4.62C33.47 4.6 33.4 4.57 33.32 4.57H8.35L6.89 0.75C6.77 0.45 6.53 0.23 6.25 0.11C6.12 0.04 5.98 0 5.83 0H0.97C0.44 0 0 0.44 0 0.97C0 1.5 0.44 1.94 0.97 1.94H4.85L12 20.59C10.89 21.18 10.13 22.33 10.13 23.67C10.13 25.6 11.7 27.17 13.63 27.17C15.56 27.17 17.13 25.6 17.13 23.67C17.13 23.09 16.97 22.55 16.72 22.07H25.38C25.14 22.54 25 23.07 25 23.63C25 25.56 26.57 27.13 28.5 27.13C30.43 27.13 32 25.56 32 23.63C32 21.7 30.43 20.13 28.5 20.13C28.49 20.13 28.47 20.13 28.46 20.13C28.45 20.13 28.45 20.13 28.44 20.13H14.31L13.63 18.36H29.86ZM11.27 12.2H16.72L17.96 16.41H12.88L11.27 12.2ZM30.67 10.26H25.46L26.35 6.81C26.37 6.71 26.37 6.62 26.37 6.53H31.79L30.67 10.26ZM28.84 16.42H23.87L24.96 12.21H30.09L28.84 16.42ZM23.67 10.26H17.96L16.86 6.53H24.64L23.67 10.26ZM23.17 12.2L22.08 16.41H19.76C19.76 16.39 19.76 16.36 19.75 16.34L18.53 12.2H23.17ZM15.06 6.52C15.06 6.54 15.06 6.57 15.07 6.59L16.15 10.26H10.53L9.09 6.52H15.06ZM13.63 24.75C13.04 24.75 12.55 24.27 12.55 23.67C12.55 23.08 13.03 22.59 13.63 22.59C14.22 22.59 14.71 23.07 14.71 23.67C14.71 24.27 14.23 24.75 13.63 24.75ZM28.51 24.71C27.92 24.71 27.43 24.23 27.43 23.63C27.43 23.04 27.91 22.55 28.51 22.55C29.1 22.55 29.59 23.03 29.59 23.63C29.58 24.22 29.1 24.71 28.51 24.71Z" fill="#0068AB"/>
</g>
<defs>
<clipPath id="clip0">
<rect width="34.39" height="27.18" fill="white"/>
</clipPath>
</defs>
</svg>
