<svg width="27" height="28" viewBox="0 0 27 28" fill="none" xmlns="http://www.w3.org/2000/svg">
<path d="M6.44309 1.03735C7.21437 1.0098 14.7131 0.755631 20.1259 1.03735C21.0612 1.08618 22.6801 1.1901 24.1826 2.23184C24.3291 2.33326 25.5474 3.1972 26.3237 4.6659C26.4815 4.96389 26.7645 5.5098 26.9097 6.2886C26.9873 6.70429 27.0023 7.06239 26.9998 7.32533C26.9998 11.8717 26.9998 16.4167 26.9998 20.9631C26.9748 21.4288 26.8884 22.0887 26.6167 22.8337C26.4852 23.1918 26.2135 23.8378 25.6927 24.524C25.3972 24.9134 24.3054 26.2581 22.3571 26.8454C21.6985 27.0444 21.1251 27.1008 20.7344 27.1158C16.1731 27.1158 11.613 27.1158 7.0516 27.1158C6.43558 27.067 5.23482 26.8892 3.98649 26.1016C2.79075 25.3479 2.14342 24.41 1.8905 24.0056C1.31204 23.0791 1.08541 22.2051 0.988999 21.6617C0.966462 21.4439 0.943924 21.226 0.921387 21.0081C0.921387 16.4393 0.921387 11.8704 0.921387 7.30154C0.948933 6.75813 1.11546 4.75605 2.72439 3.04319C4.15427 1.5194 5.86713 1.13877 6.44309 1.03735Z" fill="white"/>
<path d="M8.22367 23.0377H11.6494V13.8174L8.2124 4.77856L8.22367 23.0377Z" fill="#0068AB"/>
<path d="M8.80957 4.77856H12.224L19.0879 23.0377H15.656L8.80957 4.77856Z" fill="#0068AB"/>
<path d="M16.2307 4.77856H19.6289L19.6464 23.0377L16.1807 13.9075L16.2307 4.77856Z" fill="#0068AB"/>
</svg>
