<svg width="26" height="26" viewBox="0 0 26 26" fill="none" xmlns="http://www.w3.org/2000/svg">
<g clip-path="url(#clip0)">
<path d="M8.03207 25.0186C6.45296 24.3655 5.04725 23.421 3.81127 22.185C2.57528 20.9491 1.63076 19.5434 0.977721 17.9642C0.324677 16.3851 0 14.7359 0 12.9982C0 11.2604 0.324677 9.60749 0.977721 8.02838C1.63076 6.44927 2.57528 5.04356 3.81127 3.80758C5.04725 2.57159 6.45296 1.62708 8.03207 0.974032C9.61118 0.320988 11.2641 0 12.9982 0C14.7322 0 16.3888 0.324677 17.9679 0.977721C19.547 1.63076 20.9527 2.57528 22.1887 3.81127C23.4247 5.04725 24.3692 6.45296 25.0223 8.03207C25.6753 9.61118 26 11.2641 26 13.0018C26 14.7396 25.6753 16.3925 25.0223 17.9716C24.3692 19.5507 23.4247 20.9564 22.1887 22.1924C20.9527 23.4284 19.547 24.3729 17.9679 25.026C16.3888 25.679 14.7359 26.0037 12.9982 26.0037C11.2604 26.0037 9.60749 25.6716 8.03207 25.0186ZM14.0497 19.8607V13.5922H16.1527L16.47 11.1718H14.0497V9.79197C14.0497 9.40457 14.0718 9.16475 14.1161 9.06882C14.1161 9.043 14.153 8.96183 14.2231 8.8327C14.3817 8.54491 14.7876 8.39733 15.4443 8.39733H16.5622V6.2279C15.9756 6.1578 15.3521 6.1209 14.6953 6.1209C13.4261 6.1209 12.5222 6.58578 11.9872 7.51554C11.681 8.03207 11.526 8.62977 11.526 9.30495V11.1718H9.43777V13.5922H11.526V19.8607H14.0497Z" fill="white"/>
</g>
<defs>
<clipPath id="clip0">
<rect width="26" height="26" fill="white"/>
</clipPath>
</defs>
</svg>
