<svg width="30" height="17" viewBox="0 0 30 17" fill="none" xmlns="http://www.w3.org/2000/svg">
<path d="M6.81749 0C12.261 0 17.7053 0 23.1488 0C26.7752 0.441769 29.6306 3.71038 29.9673 7.71878C30.322 11.9335 27.8033 15.9102 24.0638 16.905C23.7382 16.9367 23.4135 16.9683 23.088 17.0008C17.5837 17.0008 12.0802 17.0008 6.5759 17.0008C3.18078 16.4527 0.513014 13.4163 0.0649587 9.63041C-0.446493 5.30204 2.15017 1.73947 4.76226 0.527037C5.56242 0.155919 6.2949 0.0373555 6.81749 0Z" fill="white"/>
<path d="M22.0869 6.86206C22.8685 6.86206 23.5022 6.26142 23.5022 5.52051C23.5022 4.77959 22.8685 4.17896 22.0869 4.17896C21.3053 4.17896 20.6716 4.77959 20.6716 5.52051C20.6716 6.26142 21.3053 6.86206 22.0869 6.86206Z" fill="#0068AB"/>
<path d="M25.1899 9.76278C25.9716 9.76278 26.6052 9.16215 26.6052 8.42123C26.6052 7.68031 25.9716 7.07968 25.1899 7.07968C24.4083 7.07968 23.7747 7.68031 23.7747 8.42123C23.7747 9.16215 24.4083 9.76278 25.1899 9.76278Z" fill="#0068AB"/>
<path d="M22.0869 12.6871C22.8685 12.6871 23.5022 12.0864 23.5022 11.3455C23.5022 10.6046 22.8685 10.004 22.0869 10.004C21.3053 10.004 20.6716 10.6046 20.6716 11.3455C20.6716 12.0864 21.3053 12.6871 22.0869 12.6871Z" fill="#0068AB"/>
<path d="M18.9626 9.76278C19.7443 9.76278 20.3779 9.16215 20.3779 8.42123C20.3779 7.68031 19.7443 7.07968 18.9626 7.07968C18.181 7.07968 17.5474 7.68031 17.5474 8.42123C17.5474 9.16215 18.181 9.76278 18.9626 9.76278Z" fill="#0068AB"/>
<path d="M8.93224 12.5799H7.47499C7.23768 12.5799 7.04321 12.3955 7.04321 12.1706V4.66457C7.04321 4.43962 7.23768 4.25528 7.47499 4.25528H8.93224C9.16955 4.25528 9.36402 4.43962 9.36402 4.66457V12.1706C9.36402 12.3955 9.16955 12.5799 8.93224 12.5799Z" fill="#0068AB"/>
<path d="M4.06299 9.12367V7.74232C4.06299 7.51738 4.25746 7.33304 4.49477 7.33304H12.0971C12.3344 7.33304 12.5289 7.51738 12.5289 7.74232V9.12367C12.5289 9.34861 12.3344 9.53295 12.0971 9.53295H4.49477C4.25746 9.53295 4.06299 9.34861 4.06299 9.12367Z" fill="#0068AB"/>
</svg>
