<svg width="26" height="26" viewBox="0 0 26 26" fill="none" xmlns="http://www.w3.org/2000/svg">
<g clip-path="url(#clip0)">
<path d="M8.03207 25.0186C6.45296 24.3655 5.04725 23.421 3.81127 22.185C2.57528 20.9491 1.63076 19.5434 0.977721 17.9642C0.324677 16.3851 0 14.7359 0 12.9982C0 11.2604 0.324677 9.60749 0.977721 8.02838C1.63076 6.44927 2.57528 5.04356 3.81127 3.80758C5.04725 2.57159 6.45296 1.62708 8.03207 0.974032C9.61118 0.320988 11.2641 0 12.9982 0C14.7322 0 16.3888 0.324677 17.9679 0.977721C19.547 1.63076 20.9527 2.57528 22.1887 3.81127C23.4247 5.04725 24.3692 6.45296 25.0223 8.03207C25.6753 9.61118 26 11.2641 26 13.0018C26 14.7396 25.6753 16.3925 25.0223 17.9716C24.3692 19.5507 23.4247 20.9564 22.1887 22.1924C20.9527 23.4284 19.547 24.3729 17.9679 25.026C16.3888 25.679 14.7359 26.0037 12.9982 26.0037C11.2604 26.0037 9.60749 25.6716 8.03207 25.0186ZM10.3196 17.5621C11.301 17.5621 12.2307 17.2669 13.1052 16.6803C14.2194 15.8133 14.7728 14.5293 14.7728 12.8284C14.7728 12.6513 14.7691 12.4595 14.7581 12.2492V12.2234C11.7954 12.2234 10.3159 12.2307 10.3159 12.2492V13.8135C10.4044 13.8209 11.2899 13.832 12.9723 13.8394C12.9723 13.9168 12.9096 14.0718 12.7879 14.3006C12.7436 14.5367 12.5148 14.8577 12.1053 15.2598C11.5629 15.6362 10.9652 15.8243 10.3159 15.8243C9.47467 15.8243 8.73677 15.496 8.10586 14.8392C7.65943 14.3042 7.43437 13.6549 7.43437 12.8948C7.43437 12.3525 7.55981 11.8507 7.81439 11.3969C8.00624 11.0464 8.25344 10.7697 8.55229 10.5705C9.01717 10.1757 9.58167 9.98013 10.2495 9.98013C10.9173 9.98013 11.574 10.1904 12.2197 10.611C12.2455 10.611 12.2935 10.5668 12.3636 10.4782C12.8727 9.98013 13.2121 9.61856 13.3892 9.40088C12.4005 8.62977 11.4301 8.24237 10.4856 8.24237H10.3011C9.29388 8.24237 8.38257 8.54491 7.56719 9.14999C6.7186 9.76245 6.14673 10.5557 5.85895 11.5297C5.71875 11.9061 5.64864 12.3931 5.64864 12.9871C5.64864 13.4852 5.74088 13.9906 5.92536 14.4998C6.30169 15.4996 6.9326 16.2929 7.81808 16.8795C8.58181 17.3333 9.41564 17.5621 10.3196 17.5621ZM18.953 14.9056V13.5663H20.2923V12.227H18.953V10.8988H17.6396V12.227H16.3003V13.5663H17.6396V14.9056H18.953Z" fill="white"/>
</g>
<defs>
<clipPath id="clip0">
<rect width="26" height="26" fill="white"/>
</clipPath>
</defs>
</svg>
