<svg width="15" height="29" viewBox="0 0 15 29" fill="none" xmlns="http://www.w3.org/2000/svg">
<g clip-path="url(#clip0)">
<path d="M14.52 21.57C14.52 23.57 13.81 25.28 12.39 26.7C10.97 28.12 9.26 28.83 7.26 28.83C5.25 28.83 3.53 28.12 2.12 26.7C0.71 25.28 0 23.57 0 21.57C0 20.01 0.45 18.61 1.34 17.36C2.24 16.12 3.39 15.24 4.81 14.72C4.3 14.14 4.05 13.42 4.06 12.56C2.9 12.29 2 11.62 1.36 10.58C0.72 9.54 0.4 8.24 0.4 6.67V0H14.12V6.67C14.12 10.08 12.86 12.03 10.33 12.53V12.58C10.27 13.44 10.01 14.14 9.54 14.67C11.01 15.16 12.19 16.03 13.1 17.27C14.05 18.56 14.52 19.99 14.52 21.57ZM13.63 21.66L12.09 20.68L13.14 19.18L11.34 18.88L11.74 17.08L9.93 17.5L9.65 15.7L8.15 16.76L7.17 15.2L6.21 16.8L4.71 15.7L4.45 17.55L2.62 17.08L3.11 18.89L1.23 19.17L2.38 20.69L0.74 21.65L2.38 22.59L1.23 24.11L3.1 24.37L2.63 26.2L4.44 25.73L4.72 27.61L6.2 26.48L7.18 28.09L8.14 26.52L9.66 27.62L9.96 25.79L11.76 26.21L11.34 24.43L13.15 24.12L12.09 22.64L13.63 21.66ZM9.63 12.63C9.28 12.66 8.91 12.68 8.51 12.68H5.29C5.12 12.68 4.95 12.67 4.78 12.66C4.81 13.49 5.08 14.1 5.57 14.49C6.13 14.36 6.69 14.3 7.26 14.3C7.77 14.3 8.27 14.35 8.76 14.46C9.26 14.06 9.55 13.45 9.63 12.63ZM9.02 11.88V0.44H5.46V11.89H9.02V11.88Z" fill="#0068AB"/>
</g>
<defs>
<clipPath id="clip0">
<rect width="14.52" height="28.83" fill="white"/>
</clipPath>
</defs>
</svg>
