<svg width="27" height="24" viewBox="0 0 27 24" fill="none" xmlns="http://www.w3.org/2000/svg">
<g clip-path="url(#clip0)">
<path d="M13.5405 14.4336C17.6001 14.4336 20.891 11.2025 20.891 7.21678C20.891 3.23106 17.6001 0 13.5405 0C9.48089 0 6.18994 3.23106 6.18994 7.21678C6.18994 11.2025 9.48089 14.4336 13.5405 14.4336Z" fill="#0068AB"/>
<path d="M20.954 12.411C20.6301 12.2166 20.2163 12.3315 20.0093 12.6406C18.6058 14.6811 16.2396 16.0238 13.5405 16.0238C10.8414 16.0238 8.47518 14.6811 7.07164 12.6406C6.85572 12.3315 6.44185 12.2166 6.12696 12.411C3.22993 14.2041 1.05265 17.0043 0.107966 20.3167C-0.41386 22.1629 0.998669 24.0002 2.95102 24.0002C8.17828 24.0002 18.2279 24.0002 23.7071 24.0002C25.8754 24.0002 27.5038 21.9509 26.8561 19.9192C25.8574 16.7746 23.7341 14.1246 20.954 12.411Z" fill="#0068AB"/>
</g>
<defs>
<clipPath id="clip0">
<rect width="27" height="24" fill="white"/>
</clipPath>
</defs>
</svg>
