<svg width="27" height="24" viewBox="0 0 27 24" fill="none" xmlns="http://www.w3.org/2000/svg">
<g clip-path="url(#clip0)">
<path d="M13.54 14.4336C17.5996 14.4336 20.8906 11.2025 20.8906 7.21678C20.8906 3.23106 17.5996 0 13.54 0C9.48041 0 6.18945 3.23106 6.18945 7.21678C6.18945 11.2025 9.48041 14.4336 13.54 14.4336Z" fill="white"/>
<path d="M20.9544 12.4107C20.6305 12.2164 20.2166 12.3312 20.0097 12.6404C18.6061 14.6809 16.2399 16.0235 13.5408 16.0235C10.8417 16.0235 8.47551 14.6809 7.07198 12.6404C6.85605 12.3312 6.44219 12.2164 6.1273 12.4107C3.23026 14.2039 1.05299 17.004 0.108301 20.3165C-0.413525 22.1627 0.999005 24 2.95135 24C8.17861 24 18.2283 24 23.7074 24C25.8757 24 27.5042 21.9507 26.8564 19.919C25.8577 16.7744 23.7344 14.1244 20.9544 12.4107Z" fill="white"/>
</g>
<defs>
<clipPath id="clip0">
<rect width="27" height="24" fill="white"/>
</clipPath>
</defs>
</svg>
