<svg width="227" height="64" viewBox="0 0 227 64" fill="none" xmlns="http://www.w3.org/2000/svg">
<g clip-path="url(#clip0)">
<path d="M51.0111 1.94837C51.0111 1.94837 48.437 4.9438 45.6897 6.16146C42.9424 7.37911 41.5563 8.08535 40.2198 8.45065C38.8833 8.81595 35.6657 10.3258 33.7104 11.5435C31.7551 12.7612 30.0225 14.4659 30.0225 14.4659H27.3495L29.3543 15.6592C29.3543 15.6592 28.389 17.2908 27.498 18.338C26.6069 19.3852 25.7654 20.5298 24.8744 20.5298C23.9586 20.5298 23.8101 20.3837 23.4884 20.0427C23.1666 19.7018 23.1171 18.6059 23.1171 18.6059C23.1171 18.6059 21.5331 21.5039 21.3598 23.1599C21.1866 24.8159 21.4588 25.5222 21.4588 25.5222C21.4588 25.5222 21.6073 25.3761 21.9043 25.0595C22.2013 24.7672 22.4241 24.6698 22.5478 25.1569C22.6716 25.644 22.9438 27.8844 24.1566 29.1752C25.3694 30.4659 29.8245 31.1965 29.8245 31.1965C29.8245 31.1965 27.3495 29.1995 27.4237 27.8114C27.498 26.4233 28.4385 25.7901 28.785 25.7901C29.1315 25.7901 29.5523 26.2041 29.5523 26.2041C29.5523 26.2041 30.5423 24.7672 31.5571 24.8647C32.5718 24.9377 35.1707 26.9103 35.1707 26.9103C35.1707 26.9103 35.1954 25.4248 35.5914 25.3761C35.9874 25.3274 40.5168 26.9347 40.5168 26.9347C40.5168 26.9347 40.0218 24.8159 41.0861 23.7688C42.1503 22.7216 44.1056 23.3304 44.1056 23.3304C44.1056 23.3304 42.7196 22.1371 43.0414 21.8205C43.3631 21.5039 48.1152 21.6257 48.4618 21.7718C48.8083 21.9179 51.1101 23.2817 52.2981 23.2817C53.4861 23.2817 55.3919 22.1615 55.3919 22.1615C55.3919 22.1615 60.0451 27.1295 60.2431 27.3243C60.4411 27.5191 61.0351 28.5176 63.2626 29.0047C65.4902 29.4917 67.0247 29.2969 67.0247 29.2969C67.0247 29.2969 64.1537 28.2254 62.0251 25.9118C59.8965 23.6226 59.055 21.8936 59.5748 21.3578C60.1193 20.822 61.1093 21.6987 61.3816 21.9666C61.6786 22.2589 61.9014 22.5755 62.1489 22.6972C62.3964 22.819 62.5696 22.7459 62.5696 22.7459C62.5696 22.7459 62.4459 22.7946 62.3221 22.5998C62.1984 22.405 62.1489 21.0899 60.1688 18.3137C58.1888 15.5374 55.9117 13.857 53.7089 12.7855C51.5061 11.714 48.2638 10.8616 47.447 10.8616C46.6302 10.8616 45.6649 10.8129 45.5164 10.6668C45.3927 10.545 47.645 9.74137 49.2043 7.79312C50.7636 5.84487 51.3328 5.45522 51.3328 2.6059V1.4126C51.3328 1.4126 51.1596 1.77789 51.0111 1.94837Z" fill="white"/>
<path d="M31.8046 17.6076C31.5075 17.3154 32.9183 16.3656 33.4876 16.1464C34.0569 15.9272 37.1507 15.7324 37.1507 15.7324C37.1507 15.7324 35.7647 17.4128 34.3539 17.8511C32.9431 18.2895 32.1016 17.8998 31.8046 17.6076Z" fill="white"/>
<path d="M22.2508 47.1968C22.2756 47.1968 22.2756 47.1968 22.3003 47.1968L18.761 47.1724C19.3303 47.0019 19.6273 46.6853 19.6273 46.247L19.553 37.212C19.5035 36.8467 19.3303 36.6031 18.9837 36.457H21.5826C21.5578 36.457 21.5331 36.4814 21.5083 36.5057H21.6568C22.9686 36.9928 24.2309 37.6747 25.4437 38.6001C25.5179 40.0856 25.5674 41.4738 25.5674 42.7888C25.5674 43.1541 25.5427 43.6899 25.5179 44.3961C25.4189 44.7858 24.9734 45.3459 24.1814 46.0278C23.7359 46.4175 23.2904 46.7828 22.8201 47.1724L22.3498 47.2455H22.2508V47.1968ZM21.3103 45.7356C21.3103 45.7599 21.3351 45.8086 21.3351 45.833C21.5826 46.0035 21.9291 46.1496 22.3993 46.2957C22.5973 46.1739 22.8201 46.0278 23.0676 45.8086C23.3399 45.5651 23.5131 45.3459 23.5874 45.1754V38.8193C23.4884 38.4783 23.1914 38.1617 22.7211 37.9182C22.4488 37.7965 22.0528 37.6016 21.5331 37.3581C21.4588 37.5286 21.4341 37.7721 21.3846 38.1374C21.3598 38.4783 21.3103 38.7462 21.2361 38.9167L21.3103 45.7356Z" fill="white"/>
<path d="M26.7554 45.4191C26.8792 44.6885 26.9287 43.7874 26.9287 42.6915C26.9287 41.8635 26.9039 40.9625 26.8297 39.964H28.2405C28.29 40.7433 28.29 41.6687 28.2652 42.7402C28.2405 43.7874 28.1662 44.6398 28.092 45.2486C28.0425 45.6383 28.1662 45.9062 28.488 46.0766H26.3347C26.5574 45.9549 26.7059 45.7357 26.7554 45.4191ZM26.7802 37.6748C26.7802 37.8209 26.7554 37.9914 26.7307 38.1619C26.8792 38.6246 27.0772 38.9899 27.3495 39.2578C27.7455 39.2091 28.1167 39.0629 28.4137 38.7707C28.4137 37.8453 28.3642 37.3826 28.2405 37.3826C28.191 37.3826 28.1415 37.3826 28.0425 37.4069C27.9435 37.4313 27.8692 37.4313 27.8445 37.4313C27.6465 37.4313 27.498 37.3826 27.3495 37.2852C27.0277 37.3095 26.8544 37.4313 26.7802 37.6748Z" fill="white"/>
<path d="M32.9678 40.0371L32.8688 43.8362C32.7698 43.9093 32.2253 44.3476 31.1858 45.1513C30.765 45.4679 30.5175 45.6383 30.3938 45.6383C30.3443 45.6383 30.2948 45.614 30.2948 45.5896L29.4037 44.3233C29.379 44.2989 29.379 42.6429 29.379 39.3552C29.379 39.2822 29.4037 39.2578 29.4532 39.2578C29.5523 39.2578 29.7255 39.3552 29.973 39.5744C30.4185 39.9397 30.6413 40.1345 30.6165 40.1345C30.6165 41.1817 30.666 42.5698 30.7403 44.2745C30.8393 44.4694 31.0373 44.5424 31.3343 44.4694C31.3591 44.4694 31.5571 44.2502 31.8788 43.8118C31.8788 43.3735 31.9036 42.9108 31.9036 42.4724C31.9036 41.4496 31.8788 40.4511 31.8046 39.4526C31.7798 39.477 31.7551 39.5013 31.7551 39.5257C31.7551 39.6231 31.9283 39.7449 32.2748 39.8423C32.7203 39.9884 32.9431 40.0371 32.9678 40.0371Z" fill="white"/>
<path d="M33.8589 45.4191C33.9827 44.6885 34.0322 43.7874 34.0322 42.6915C34.0322 41.8635 34.0074 40.9625 33.9332 39.964H35.3439C35.3934 40.7433 35.3934 41.6687 35.3687 42.7402C35.3439 43.7874 35.2697 44.6398 35.1954 45.2486C35.1459 45.6383 35.2697 45.9062 35.5915 46.0766H33.4381C33.6609 45.9549 33.8094 45.7357 33.8589 45.4191ZM33.8837 37.6748C33.8837 37.8209 33.8589 37.9914 33.8342 38.1619C33.9827 38.6246 34.1807 38.9899 34.4529 39.2578C34.8489 39.2091 35.2202 39.0629 35.5172 38.7707C35.5172 37.8453 35.4677 37.3826 35.3439 37.3826C35.2944 37.3826 35.2449 37.3826 35.1459 37.4069C35.0469 37.4313 34.9727 37.4313 34.9479 37.4313C34.7499 37.4313 34.6014 37.3826 34.4529 37.2852C34.1312 37.3095 33.9579 37.4313 33.8837 37.6748Z" fill="white"/>
<path d="M36.0122 40.5484C36.532 40.1831 37.1507 39.7448 37.819 39.209V40.5971C38.017 40.3536 38.2645 40.0857 38.5615 39.7935C39.007 39.4769 39.2545 39.3064 39.3535 39.3064C39.403 39.3064 39.4525 39.3307 39.4525 39.3551L40.3435 40.6215C40.3435 40.6215 40.3683 42.3018 40.3683 45.6382C40.3683 45.7356 40.3188 45.8087 40.2198 45.833L38.7843 46.661V46.588C39.007 46.3932 39.1308 46.1983 39.1555 46.0279C39.1555 44.2988 39.106 42.521 39.007 40.6458C38.908 40.451 38.71 40.3779 38.413 40.451C38.3883 40.451 38.1903 40.6702 37.8685 41.1085C37.8437 42.2775 37.8685 43.5195 37.9427 44.8589C37.9675 45.1755 38.116 45.3947 38.4378 45.4677C38.2893 45.4677 38.0665 45.4677 37.7695 45.4434C37.4725 45.4434 37.2497 45.419 37.1012 45.419C37.0022 45.419 36.8537 45.419 36.6805 45.4434C36.4825 45.4434 36.334 45.4677 36.2597 45.4677C36.532 45.346 36.6805 45.2729 36.7547 45.1999C36.8042 45.1511 36.829 45.0537 36.829 44.8833V40.5241L36.0122 40.5484Z" fill="white"/>
<path d="M44.7739 41.425L44.3779 42.2286C43.9819 41.9851 43.5116 41.8634 42.9919 41.8634C42.6701 41.8634 42.4969 41.9121 42.4226 41.9851L42.5216 44.4935C42.5959 44.664 42.7939 44.8344 43.0414 44.9805C43.2394 44.7127 43.3879 44.3717 43.4621 43.9821C43.4621 43.9334 43.4869 43.6898 43.5364 43.2028L44.2294 44.0551L43.2889 45.3946L42.4969 45.4189L40.9128 44.0551C40.8386 43.6655 40.7891 43.2271 40.7891 42.7157C40.7891 42.0095 40.8633 41.2545 41.0118 40.4509L42.7691 39.0871C42.8929 39.0384 42.9919 39.0627 43.0909 39.1114L44.3531 39.9151L44.7739 41.425ZM43.6354 41.5224L42.8434 39.7446C42.7691 39.6472 42.7196 39.5985 42.6949 39.5985C42.6454 39.5985 42.6206 39.6229 42.5711 39.6959L42.3731 41.4494C42.9671 41.4494 43.3879 41.4493 43.6354 41.5224Z" fill="white"/>
<path d="M39.9228 28.7855C39.9228 28.7855 47.0262 26.9834 51.7536 26.9834C56.481 26.9834 59.7481 28.0306 61.3074 29.4187C62.7924 30.7094 63.8319 32.268 63.9557 34.8495C64.1042 37.4309 63.9557 38.3076 63.9557 38.3076C63.9557 38.3076 60.5153 33.7536 56.9512 31.9271C53.8574 30.3685 50.9616 28.2498 39.9228 28.7855Z" fill="white"/>
<path d="M48.3628 32.6576C48.3628 32.6576 56.4562 32.341 59.7481 35.166C59.7481 35.166 64.1537 38.3075 60.5649 45.4186C60.5649 45.4186 60.5649 42.0822 57.8175 38.5267C55.0702 34.9711 51.8774 33.2421 48.3628 32.6576Z" fill="white"/>
<path d="M54.0554 54.5999C54.0554 54.5999 58.9808 50.0215 58.9808 46.0033C58.9808 41.985 56.5552 38.8922 50.7141 36.5786C50.7141 36.5786 54.1792 40.6699 54.5752 44.5664C55.0207 48.6334 55.1692 51.6045 54.0554 54.5999Z" fill="white"/>
<path d="M49.9468 42.7153C49.9468 42.7153 54.1792 48.2922 52.9911 53.4794C51.8031 58.6666 45.5164 60.6879 45.5164 60.6879C45.5164 60.6879 48.833 56.9863 49.7488 53.2359C50.6398 49.4855 50.4666 48.8767 50.4666 47.0745C50.4666 45.2724 49.9468 42.7153 49.9468 42.7153Z" fill="white"/>
<path d="M48.0658 53.1143C48.0658 53.1143 42.9424 59.4948 34.9232 59.8844C26.904 60.2741 29.2553 60.1766 26.4584 60.1766C23.6616 60.1766 17.9195 58.7398 17.9195 58.7398C17.9195 58.7398 24.7506 64.0244 33.6114 64.0244C42.4721 64.0244 46.6302 58.4963 48.0658 53.1143Z" fill="white"/>
<path d="M28.191 57.79C28.191 57.79 19.7263 59.0807 12.7466 55.2573C5.76691 51.4339 4.05911 46.4658 4.05911 46.4658C4.05911 46.4658 7.05394 48.5358 9.67751 49.2664C12.3011 49.997 17.3997 52.2862 18.3897 53.2603C19.3798 54.2345 27.102 57.79 28.191 57.79Z" fill="white"/>
<path d="M0 30.4414C0 30.4414 0.346509 38.137 3.24233 42.0335C6.13816 45.93 8.16771 46.5875 9.25674 47.1233C10.3705 47.659 15.5434 50.3622 15.7662 50.5814C15.9889 50.8006 11.2368 42.691 8.76173 41.1811C6.26191 39.6956 4.80163 40.7671 0 30.4414Z" fill="white"/>
<path d="M11.3358 40.524C11.3358 40.524 5.29664 37.0902 2.12855 29.8573C-1.03953 22.6244 4.0591 16.9258 4.0591 16.9258C4.0591 16.9258 3.63834 21.8208 4.25711 23.769C4.87588 25.7173 5.32139 26.6914 5.64315 26.9836C5.94015 27.2759 8.63797 30.2956 9.7765 35.1176C10.915 39.9395 11.3358 40.524 11.3358 40.524Z" fill="white"/>
<path d="M10.3458 28.7125C10.3458 28.7125 6.01439 22.7947 7.12817 15.9758C8.24195 9.15694 14.4791 5.13867 14.4791 5.13867C14.4791 5.13867 9.77649 13.1996 11.905 18.0702C11.905 18.0458 9.57848 24.6699 10.3458 28.7125Z" fill="white"/>
<path d="M14.4791 17.364C14.4791 17.364 12.1031 10.4477 17.1769 4.60293C22.2508 -1.24182 32.5223 0.121955 32.5223 0.121955C32.5223 0.121955 24.2309 4.3594 21.0628 7.4766C17.8947 10.5938 15.0484 14.7095 14.4791 17.364Z" fill="white"/>
</g>
<path d="M82.5234 42V24.9375H87.7734C89.2734 24.9375 90.6133 25.2773 91.793 25.957C92.9805 26.6289 93.9062 27.5898 94.5703 28.8398C95.2344 30.082 95.5664 31.4961 95.5664 33.082V33.8672C95.5664 35.4531 95.2383 36.8633 94.582 38.0977C93.9336 39.332 93.0156 40.2891 91.8281 40.9688C90.6406 41.6484 89.3008 41.9922 87.8086 42H82.5234ZM86.0391 27.7852V39.1758H87.7383C89.1133 39.1758 90.1641 38.7266 90.8906 37.8281C91.6172 36.9297 91.9883 35.6445 92.0039 33.9727V33.0703C92.0039 31.3359 91.6445 30.0234 90.9258 29.1328C90.207 28.2344 89.1562 27.7852 87.7734 27.7852H86.0391ZM101.871 42H98.3555V24.9375H101.871V42ZM111.445 37.7695L115.312 24.9375H119.227L113.285 42H109.617L103.699 24.9375H107.602L111.445 37.7695ZM124.582 42H121.066V24.9375H124.582V42ZM141.727 42H138.211L131.367 30.7734V42H127.852V24.9375H131.367L138.223 36.1875V24.9375H141.727V42ZM155.062 34.6055H148.312V39.1758H156.234V42H144.797V24.9375H156.211V27.7852H148.312V31.8516H155.062V34.6055ZM167.145 37.5234C167.145 36.8594 166.91 36.3516 166.441 36C165.973 35.6406 165.129 35.2656 163.91 34.875C162.691 34.4766 161.727 34.0859 161.016 33.7031C159.078 32.6562 158.109 31.2461 158.109 29.4727C158.109 28.5508 158.367 27.7305 158.883 27.0117C159.406 26.2852 160.152 25.7188 161.121 25.3125C162.098 24.9062 163.191 24.7031 164.402 24.7031C165.621 24.7031 166.707 24.9258 167.66 25.3711C168.613 25.8086 169.352 26.4297 169.875 27.2344C170.406 28.0391 170.672 28.9531 170.672 29.9766H167.156C167.156 29.1953 166.91 28.5898 166.418 28.1602C165.926 27.7227 165.234 27.5039 164.344 27.5039C163.484 27.5039 162.816 27.6875 162.34 28.0547C161.863 28.4141 161.625 28.8906 161.625 29.4844C161.625 30.0391 161.902 30.5039 162.457 30.8789C163.02 31.2539 163.844 31.6055 164.93 31.9336C166.93 32.5352 168.387 33.2812 169.301 34.1719C170.215 35.0625 170.672 36.1719 170.672 37.5C170.672 38.9766 170.113 40.1367 168.996 40.9805C167.879 41.8164 166.375 42.2344 164.484 42.2344C163.172 42.2344 161.977 41.9961 160.898 41.5195C159.82 41.0352 158.996 40.375 158.426 39.5391C157.863 38.7031 157.582 37.7344 157.582 36.6328H161.109C161.109 38.5156 162.234 39.457 164.484 39.457C165.32 39.457 165.973 39.2891 166.441 38.9531C166.91 38.6094 167.145 38.1328 167.145 37.5234ZM186.949 42H183.434V34.6875H176.578V42H173.062V24.9375H176.578V31.8516H183.434V24.9375H186.949V42ZM204.047 33.8555C204.047 35.5352 203.75 37.0078 203.156 38.2734C202.562 39.5391 201.711 40.5156 200.602 41.2031C199.5 41.8906 198.234 42.2344 196.805 42.2344C195.391 42.2344 194.129 41.8945 193.02 41.2148C191.91 40.5352 191.051 39.5664 190.441 38.3086C189.832 37.043 189.523 35.5898 189.516 33.9492V33.1055C189.516 31.4258 189.816 29.9492 190.418 28.6758C191.027 27.3945 191.883 26.4141 192.984 25.7344C194.094 25.0469 195.359 24.7031 196.781 24.7031C198.203 24.7031 199.465 25.0469 200.566 25.7344C201.676 26.4141 202.531 27.3945 203.133 28.6758C203.742 29.9492 204.047 31.4219 204.047 33.0938V33.8555ZM200.484 33.082C200.484 31.293 200.164 29.9336 199.523 29.0039C198.883 28.0742 197.969 27.6094 196.781 27.6094C195.602 27.6094 194.691 28.0703 194.051 28.9922C193.41 29.9062 193.086 31.25 193.078 33.0234V33.8555C193.078 35.5977 193.398 36.9492 194.039 37.9102C194.68 38.8711 195.602 39.3516 196.805 39.3516C197.984 39.3516 198.891 38.8906 199.523 37.9688C200.156 37.0391 200.477 35.6875 200.484 33.9141V33.082ZM210.117 35.9883V42H206.602V24.9375H213.258C214.539 24.9375 215.664 25.1719 216.633 25.6406C217.609 26.1094 218.359 26.7773 218.883 27.6445C219.406 28.5039 219.668 29.4844 219.668 30.5859C219.668 32.2578 219.094 33.5781 217.945 34.5469C216.805 35.5078 215.223 35.9883 213.199 35.9883H210.117ZM210.117 33.1406H213.258C214.188 33.1406 214.895 32.9219 215.379 32.4844C215.871 32.0469 216.117 31.4219 216.117 30.6094C216.117 29.7734 215.871 29.0977 215.379 28.582C214.887 28.0664 214.207 27.8008 213.34 27.7852H210.117V33.1406Z" fill="white"/>
<defs>
<clipPath id="clip0">
<rect width="67" height="64" fill="white"/>
</clipPath>
</defs>
</svg>
