<svg width="24" height="24" viewBox="0 0 24 24" fill="none" xmlns="http://www.w3.org/2000/svg">
<path d="M1.2574 9.52898C1.2574 9.52898 0.795636 9.59801 0.426678 9.93302C0.0577204 10.2669 0 10.7977 0 10.7977L0.00565886 22.4697C0.00565886 22.4697 0.23654 23.6807 1.28569 23.692H22.2076C22.2076 23.692 23.4186 23.4034 23.4186 22.5613C23.4186 21.7193 23.4017 20.6622 23.4017 20.6622L23.413 13.0114C23.413 13.0114 23.4017 12.4116 22.4555 12.4116C21.5093 12.4116 1.90251 12.4116 1.90251 12.4116C1.90251 12.4116 1.65692 11.1893 2.88715 11.1893C4.11739 11.1893 23.413 11.1893 23.413 11.1893C23.413 11.1893 23.6473 9.52898 21.8941 9.52898C20.7726 9.52898 12.6453 9.52898 6.93098 9.52898C3.71108 9.52898 1.2574 9.52898 1.2574 9.52898Z" fill="white"/>
<path d="M22.0413 9.85154L19.6657 4.19946L6.93213 9.52898L22.0413 9.85154Z" fill="white"/>
<path d="M2.52606 8.65186L18.7421 1.91668L18.1887 0.625326C18.1887 0.625326 17.6115 -0.205395 16.989 0.0481222C16.3665 0.301639 2.66414 5.97635 2.66414 5.97635C2.66414 5.97635 1.65686 6.43019 1.94886 7.32995C2.24086 8.22971 2.52606 8.65186 2.52606 8.65186Z" fill="white"/>
</svg>
