<svg width="26" height="26" viewBox="0 0 26 26" fill="none" xmlns="http://www.w3.org/2000/svg">
<path d="M8.02703 25.0135C6.44595 24.3649 5.04054 23.4189 3.81081 22.1757C2.58108 20.9459 1.63514 19.527 0.972973 17.9595C0.310811 16.3919 0 14.7297 0 13C0 11.2703 0.324324 9.60811 0.972973 8.02703C1.62162 6.44595 2.56757 5.04054 3.81081 3.81081C5.04054 2.58108 6.45946 1.63514 8.02703 0.972973C9.60811 0.324324 11.2568 0 13 0C14.7297 0 16.3919 0.324324 17.973 0.972973C19.5541 1.62162 20.9595 2.56757 22.1892 3.81081C23.4189 5.04054 24.3649 6.45946 25.027 8.02703C25.6892 9.59459 26 11.2568 26 13C26 14.7432 25.6757 16.3919 25.027 17.973C24.3784 19.5541 23.4324 20.9595 22.1892 22.1892C20.9595 23.4189 19.5405 24.3649 17.973 25.027C16.3919 25.6757 14.7432 26 13 26C11.2568 26 9.60811 25.6757 8.02703 25.0135ZM16.8784 19.5946C17.4054 19.5946 17.9189 19.4054 18.4189 19.027C19.1757 18.4324 19.5541 17.8243 19.5541 17.2162C19.5541 16.8243 19.2838 16.4324 18.7568 16.0405C18.2838 15.6757 17.7703 15.3378 17.2297 15.0405C16.8514 14.7162 16.4865 14.5541 16.1081 14.5541C16.0811 14.5541 15.9595 14.5541 15.7568 14.5676C15.5541 14.5811 15.2838 14.8378 14.9595 15.3378C14.7703 15.6216 14.5135 15.7568 14.1892 15.7568C14.0135 15.7568 13.8243 15.7027 13.6081 15.6081C12.1216 15 11.0541 13.9595 10.4054 12.473C10.2568 12.2432 10.1892 12 10.1892 11.7568C10.1892 11.6892 10.2027 11.5676 10.2297 11.4054C10.2568 11.2432 10.4324 11.0541 10.7703 10.8514C10.9595 10.7162 11.1351 10.5676 11.2703 10.3919C11.4054 10.2162 11.4865 9.98649 11.4865 9.68919C11.4459 9.45946 11.2838 9.10811 10.9865 8.63513C10.0135 7.14865 9.24324 6.41892 8.66216 6.41892C8.52703 6.41892 8.37838 6.44595 8.22973 6.5C7.01351 6.94595 6.41892 7.68919 6.41892 8.72973C6.41892 9.06757 6.5 9.41892 6.64865 9.81081C8.54054 14.3378 11.7432 17.5405 16.2568 19.4189C16.4324 19.5405 16.6486 19.5946 16.8784 19.5946ZM19.0541 13.1081C19.2568 13.1081 19.3649 13.0405 19.3784 12.9054C19.4054 12.8378 19.4189 12.7703 19.4189 12.6892C19.4189 12.6486 19.4189 12.6081 19.4054 12.5405C19.3919 12.473 19.3919 12.4054 19.3919 12.2973C19.3919 11.2432 19.1351 10.2703 18.6216 9.39189C18.1081 8.5 17.4054 7.77027 16.527 7.2027C15.6351 6.63514 14.6622 6.31081 13.6081 6.24324C13.5676 6.24324 13.5135 6.24324 13.4459 6.22973C13.3784 6.21622 13.2838 6.22973 13.1892 6.22973C12.973 6.22973 12.8649 6.35135 12.8649 6.60811C12.8649 6.72973 12.9054 6.81081 12.973 6.85135C13.0541 6.89189 13.1351 6.91892 13.2432 6.91892C13.3514 6.91892 13.4189 6.94595 13.4865 6.97297C15.1486 7.21622 16.3784 7.75676 17.2027 8.59459C18.027 9.44595 18.5405 10.6892 18.7703 12.3514L18.7432 12.6081C18.7432 12.6892 18.7568 12.7973 18.7703 12.9189C18.7838 13.0405 18.8784 13.1081 19.0541 13.1081ZM17.527 12.473C17.7027 12.4189 17.7838 12.2703 17.7838 12.0541V11.9189C17.7838 11.8514 17.7838 11.8108 17.7973 11.7838C17.7973 10.8243 17.4459 9.95946 16.7432 9.21622C16.0405 8.47297 15.1892 8 14.1622 7.82432C14.0405 7.78378 13.8919 7.77027 13.7297 7.77027C13.6892 7.77027 13.6216 7.78378 13.5135 7.7973C13.4459 7.82432 13.3784 7.95946 13.3514 8.22973C13.3514 8.44595 13.5135 8.54054 13.8514 8.54054C14.9459 8.77027 15.7297 9.12162 16.1892 9.59459C16.6486 10.0676 16.9459 10.8108 17.0946 11.7838V12.027C17.0946 12.1216 17.1081 12.2162 17.1486 12.3243C17.2027 12.4189 17.3243 12.473 17.527 12.473ZM15.9595 11.9595C16.1216 11.9324 16.2162 11.8649 16.2432 11.7568C16.2703 11.6486 16.2838 11.5405 16.2838 11.4189C16.2838 10.9595 16.0811 10.527 15.6622 10.0946C15.2568 9.66216 14.8108 9.44595 14.3378 9.44595C14.2297 9.44595 14.1351 9.44595 14.0541 9.45946C13.8919 9.5 13.8108 9.60811 13.8108 9.81081C13.8108 9.98649 13.9324 10.0946 14.1892 10.1351C15.0541 10.2568 15.5135 10.7432 15.5541 11.6081C15.5946 11.8514 15.7432 11.9595 15.9595 11.9595Z" fill="white"/>
</svg>
