<svg width="38" height="38" viewBox="0 0 38 38" fill="none" xmlns="http://www.w3.org/2000/svg">
<circle cx="19" cy="19" r="19" fill="#0068AB"/>
<path d="M30.4611 27.1038L24.4036 21.5033C26.6194 17.9873 26.097 13.2994 22.9293 10.3694C19.3402 7.04594 13.7208 7.24686 10.3846 10.8131C7.03988 14.3793 7.24207 19.963 10.8311 23.2781C13.9989 26.208 18.7421 26.3922 22.112 23.9478L28.1695 29.5482C28.852 30.1761 29.9219 30.1342 30.5538 29.4645C31.1772 28.7948 31.1435 27.7316 30.4611 27.1038ZM12.8783 21.0848C10.5109 18.8915 10.3761 15.1997 12.5835 12.8473C14.7908 10.495 18.5062 10.361 20.8736 12.5543C23.241 14.7476 23.3758 18.4394 21.1684 20.7918C18.9611 23.1525 15.2542 23.2864 12.8783 21.0848Z" fill="white"/>
</svg>
