<svg width="28" height="28" viewBox="0 0 28 28" fill="none" xmlns="http://www.w3.org/2000/svg">
<g clip-path="url(#clip0)">
<path d="M25.25 11.66H24.7C24.35 11.66 24.06 11.41 23.98 11.08C23.72 9.99 23.29 8.97 22.72 8.04C22.54 7.74 22.57 7.36 22.82 7.12L23.21 6.73C23.97 5.97 23.97 4.75 23.21 3.99C22.45 3.23 21.23 3.23 20.47 3.99L20.08 4.38C19.83 4.63 19.46 4.66 19.16 4.48C18.23 3.91 17.21 3.48 16.12 3.22C15.78 3.14 15.54 2.85 15.54 2.5V1.94C15.53 0.87 14.67 0 13.6 0C12.53 0 11.66 0.87 11.66 1.94V2.49C11.66 2.84 11.41 3.13 11.08 3.21C9.99 3.47 8.96 3.9 8.03 4.47C7.73 4.65 7.35 4.62 7.11 4.37L6.72 3.98C5.96 3.22 4.74 3.22 3.98 3.98C3.22 4.74 3.22 5.96 3.98 6.72L4.37 7.11C4.62 7.36 4.65 7.73 4.47 8.03C3.9 8.96 3.47 9.98 3.21 11.07C3.13 11.41 2.84 11.65 2.49 11.65H1.94C0.87 11.66 0 12.53 0 13.6C0 14.67 0.87 15.54 1.94 15.54H2.49C2.84 15.54 3.13 15.79 3.21 16.12C3.47 17.21 3.9 18.23 4.47 19.16C4.65 19.46 4.62 19.84 4.37 20.08L3.98 20.47C3.22 21.23 3.22 22.45 3.98 23.21C4.74 23.97 5.96 23.97 6.72 23.21L7.11 22.82C7.36 22.57 7.73 22.54 8.03 22.72C8.96 23.29 9.98 23.72 11.07 23.98C11.41 24.06 11.65 24.35 11.65 24.7V25.25C11.65 26.32 12.52 27.19 13.59 27.19C14.66 27.19 15.53 26.32 15.53 25.25V24.7C15.53 24.35 15.78 24.06 16.11 23.98C17.2 23.72 18.22 23.29 19.15 22.72C19.45 22.54 19.83 22.57 20.07 22.82L20.46 23.21C21.22 23.97 22.44 23.97 23.2 23.21C23.96 22.45 23.96 21.23 23.2 20.47L22.81 20.08C22.56 19.83 22.53 19.46 22.71 19.16C23.28 18.23 23.71 17.21 23.97 16.12C24.05 15.78 24.34 15.54 24.69 15.54H25.24C26.31 15.54 27.18 14.67 27.18 13.6C27.19 12.53 26.32 11.66 25.25 11.66ZM20.21 16.54C19.48 18.17 18.17 19.49 16.54 20.21C16.43 20.26 16.31 20.31 16.2 20.35C15.39 20.66 14.52 20.84 13.6 20.84C12.68 20.84 11.81 20.66 11 20.35C10.88 20.31 10.77 20.26 10.66 20.21C9.03 19.48 7.71 18.17 6.99 16.54C6.94 16.43 6.89 16.31 6.85 16.2C6.54 15.39 6.36 14.52 6.36 13.6C6.36 12.68 6.54 11.81 6.85 11C6.89 10.88 6.94 10.77 6.99 10.66C7.72 9.03 9.03 7.71 10.66 6.99C10.77 6.94 10.89 6.89 11 6.85C11.81 6.54 12.68 6.36 13.6 6.36C14.52 6.36 15.39 6.54 16.2 6.85C16.32 6.89 16.43 6.94 16.54 6.99C18.17 7.72 19.49 9.03 20.21 10.66C20.26 10.77 20.31 10.89 20.35 11C20.66 11.81 20.84 12.68 20.84 13.6C20.84 14.52 20.66 15.39 20.35 16.2C20.3 16.31 20.26 16.42 20.21 16.54Z" fill="white"/>
</g>
<defs>
<clipPath id="clip0">
<rect width="27.19" height="27.19" fill="white"/>
</clipPath>
</defs>
</svg>
