<svg width="28" height="27" viewBox="0 0 28 27" fill="none" xmlns="http://www.w3.org/2000/svg">
<path d="M13.7702 23.36C18.4923 23.36 22.3202 19.532 22.3202 14.81C22.3202 10.088 18.4923 6.26001 13.7702 6.26001C9.04818 6.26001 5.22021 10.088 5.22021 14.81C5.22021 19.532 9.04818 23.36 13.7702 23.36Z" fill="white"/>
<path d="M2.9 19.01H2.06C0.93 19.01 0 18.08 0 16.95V12.95C0 11.81 0.93 10.89 2.06 10.89H2.9C4.04 10.89 4.96 11.82 4.96 12.95V16.95C4.96 18.08 4.03 19.01 2.9 19.01Z" fill="white"/>
<path d="M25.4798 19.01H24.6498C23.5098 19.01 22.5898 18.08 22.5898 16.95V12.95C22.5898 11.81 23.5198 10.89 24.6498 10.89H25.4798C26.6198 10.89 27.5398 11.82 27.5398 12.95V16.95C27.5398 18.08 26.6098 19.01 25.4798 19.01Z" fill="white"/>
<path d="M17.7098 26.68H16.0098C15.3698 26.68 14.8398 26.15 14.8398 25.51V25.04C14.8398 24.4 15.3698 23.87 16.0098 23.87H17.7098C18.3498 23.87 18.8798 24.4 18.8798 25.04V25.51C18.8798 26.16 18.3598 26.68 17.7098 26.68Z" fill="white"/>
<path d="M16.8602 25.28C16.8602 25.28 21.3302 25.85 23.3302 22.79C25.3302 19.73 25.0602 14.95 25.0602 14.95C25.0602 14.95 26.7102 0.5 13.7702 0.5C0.83024 0.5 2.48024 14.95 2.48024 14.95" stroke="white" stroke-miterlimit="10"/>
</svg>
