<svg width="25" height="28" viewBox="0 0 25 28" fill="none" xmlns="http://www.w3.org/2000/svg">
<path d="M10.0918 22.3284L7.63677 27.1C5.25928 25.9417 3.38057 24.1572 2.00618 21.741C0.670572 19.43 0 16.9139 0 14.1818C0 12.0925 0.437812 10.114 1.30789 8.25746C2.21677 6.32333 3.48033 4.76051 5.10411 3.56346L2.94276 1.851L9.89787 0L9.25501 6.91632L7.30425 5.37566C5.29253 7.15462 4.28391 9.63186 4.28391 12.7963C4.28391 16.8641 6.22358 20.0396 10.0918 22.3284ZM24.9774 12.9182C24.9774 15.0075 24.5507 16.986 23.6917 18.8425C22.7828 20.7767 21.5082 22.345 19.8733 23.5365L22.0347 25.2324L15.0796 27.1L15.7224 20.1837L17.6732 21.7243C19.6849 19.9454 20.6935 17.4681 20.6935 14.3037C20.6935 10.2359 18.7594 7.06041 14.8856 4.77714L17.3407 0C19.7292 1.15826 21.6135 2.94276 22.9879 5.35904C24.3124 7.67002 24.9774 10.1916 24.9774 12.9182Z" fill="white"/>
</svg>
